<svg xmlns="http://www.w3.org/2000/svg" viewBox="0 0 350.4 259.88"><defs><style>.cls-1{fill:#dade59;}.cls-2{fill:none;stroke:#676766;stroke-miterlimit:10;stroke-width:2px;}.cls-3{fill:#676766;}</style></defs><g id="Camada_2" data-name="Camada 2"><g id="Camada_1-2" data-name="Camada 1"><polygon class="cls-1" points="175.2 66.66 201.6 4.94 201.27 69.76 251.81 17.18 224.79 78.75 294.52 40.45 243.46 92.75 325.55 72.48 255.44 110.39 341.87 110.14 259.57 129.94 341.87 149.74 255.44 149.49 325.55 187.4 243.46 167.13 294.52 219.43 224.79 181.13 251.81 242.7 201.27 190.12 201.6 254.94 175.2 193.22 148.8 254.94 149.13 190.12 98.59 242.7 125.61 181.13 55.88 219.43 106.94 167.13 24.85 187.4 94.96 149.49 8.53 149.74 90.83 129.94 8.53 110.14 94.96 110.39 24.85 72.48 106.94 92.75 55.88 40.45 125.61 78.75 98.59 17.18 149.13 69.76 148.8 4.94 175.2 66.66"/><polygon class="cls-2" points="175.2 66.66 201.6 4.94 201.27 69.76 251.81 17.18 224.79 78.75 294.52 40.45 243.46 92.75 325.55 72.48 255.44 110.39 341.87 110.14 259.57 129.94 341.87 149.74 255.44 149.49 325.55 187.4 243.46 167.13 294.52 219.43 224.79 181.13 251.81 242.7 201.27 190.12 201.6 254.94 175.2 193.22 148.8 254.94 149.13 190.12 98.59 242.7 125.61 181.13 55.88 219.43 106.94 167.13 24.85 187.4 94.96 149.49 8.53 149.74 90.83 129.94 8.53 110.14 94.96 110.39 24.85 72.48 106.94 92.75 55.88 40.45 125.61 78.75 98.59 17.18 149.13 69.76 148.8 4.94 175.2 66.66"/><path class="cls-3" d="M124.11,109.46h5.2a7.61,7.61,0,0,1,3.66.86,6.2,6.2,0,0,1,2.49,2.51,9,9,0,0,1,0,7.84,6.14,6.14,0,0,1-2.49,2.51,7.61,7.61,0,0,1-3.66.86h-5.2Zm8,12.56a4.58,4.58,0,0,0,1.93-2,7.94,7.94,0,0,0,0-6.52,4.56,4.56,0,0,0-1.92-2,5.88,5.88,0,0,0-2.82-.67h-3.68v11.88h3.68A5.78,5.78,0,0,0,132.12,122Z"/><path class="cls-3" d="M140.78,123.56a5.07,5.07,0,0,1-1.95-2.1,7,7,0,0,1-.68-3.15,6.82,6.82,0,0,1,.7-3.17,5,5,0,0,1,1.93-2.1,5.66,5.66,0,0,1,2.89-.73,5.49,5.49,0,0,1,2.76.69,4.94,4.94,0,0,1,1.9,1.92,5.88,5.88,0,0,1,.67,2.87v1h-9.29a5.28,5.28,0,0,0,.54,2.24,3.69,3.69,0,0,0,1.39,1.51,3.85,3.85,0,0,0,2.05.54,3.94,3.94,0,0,0,2.29-.68,3.39,3.39,0,0,0,1.33-1.84h1.59a4.58,4.58,0,0,1-1,2,4.94,4.94,0,0,1-1.82,1.34,5.88,5.88,0,0,1-2.42.49A5.58,5.58,0,0,1,140.78,123.56Zm6.22-8.09a3.37,3.37,0,0,0-1.31-1.39,3.93,3.93,0,0,0-2-.5,3.85,3.85,0,0,0-2,.53,3.61,3.61,0,0,0-1.37,1.4,5,5,0,0,0-.57,2h7.73A4.31,4.31,0,0,0,147,115.47Z"/><path class="cls-3" d="M152.81,123.8a3.89,3.89,0,0,1-1.61-1.41,4.26,4.26,0,0,1-.62-2.14h1.53a2.64,2.64,0,0,0,.88,2.08,3.33,3.33,0,0,0,2.24.71,3.59,3.59,0,0,0,1.52-.29,2.31,2.31,0,0,0,1-.81,2,2,0,0,0,.36-1.19,1.76,1.76,0,0,0-.62-1.43,2.8,2.8,0,0,0-1.82-.51h-1.31a3.87,3.87,0,0,1-2.6-.81,2.77,2.77,0,0,1-.95-2.21,3.21,3.21,0,0,1,.51-1.77,3.49,3.49,0,0,1,1.47-1.25,5.31,5.31,0,0,1,2.27-.46,5.15,5.15,0,0,1,2.34.5,3.67,3.67,0,0,1,1.5,1.39,4.47,4.47,0,0,1,.56,2.09h-1.52a2.81,2.81,0,0,0-.78-2,2.93,2.93,0,0,0-2.1-.71,3.09,3.09,0,0,0-2,.6,1.89,1.89,0,0,0-.74,1.55,1.5,1.5,0,0,0,.58,1.28,2.53,2.53,0,0,0,1.57.43h1.4a4,4,0,0,1,2.77.9,3.09,3.09,0,0,1,1,2.37,3.21,3.21,0,0,1-.56,1.85,3.62,3.62,0,0,1-1.54,1.28,5.25,5.25,0,0,1-2.32.47A5.45,5.45,0,0,1,152.81,123.8Z"/><path class="cls-3" d="M162,108.77h1.52v1.61H162Zm0,3.81h1.46V124H162Z"/><path class="cls-3" d="M166.65,127.45a2.46,2.46,0,0,1-.9-2,2.46,2.46,0,0,1,2-2.48v0a2.15,2.15,0,0,1-1.09-.68,1.67,1.67,0,0,1-.39-1.11,1.57,1.57,0,0,1,.49-1.2,1.89,1.89,0,0,1,1.32-.45l.4,0v0a3.61,3.61,0,0,1-1.74-1.29,3.44,3.44,0,0,1-.61-2,3.55,3.55,0,0,1,.58-2,3.79,3.79,0,0,1,1.61-1.34,5.58,5.58,0,0,1,2.31-.47,5.28,5.28,0,0,1,2.27.48,3.84,3.84,0,0,1,1.61,1.36,3.46,3.46,0,0,1,.6,2,3.56,3.56,0,0,1-.6,2,3.75,3.75,0,0,1-1.61,1.35,5.33,5.33,0,0,1-2.29.47h-1.8a1.51,1.51,0,0,0-.91.24.79.79,0,0,0-.34.7.87.87,0,0,0,.35.74,1.67,1.67,0,0,0,1,.26h4a3.75,3.75,0,0,1,2.57.86,2.87,2.87,0,0,1,1,2.24,3.08,3.08,0,0,1-.43,1.65,2.76,2.76,0,0,1-1.24,1.09,4.31,4.31,0,0,1-1.89.39h-3.61A3.92,3.92,0,0,1,166.65,127.45Zm7.29-.7a1.72,1.72,0,0,0,.76-.64,1.86,1.86,0,0,0,.26-1,1.73,1.73,0,0,0-.58-1.37,2.28,2.28,0,0,0-1.55-.51h-3.6a2.6,2.6,0,0,0-1.17.24,1.54,1.54,0,0,0-.71.67,2,2,0,0,0-.24,1,1.73,1.73,0,0,0,.54,1.33,2.29,2.29,0,0,0,1.6.5h3.54A2.78,2.78,0,0,0,173.94,126.75Zm-1.79-8.25a2.43,2.43,0,0,0,1.09-.88,2.51,2.51,0,0,0,.41-1.43,2.29,2.29,0,0,0-.88-1.93,3.4,3.4,0,0,0-2.14-.68,3.89,3.89,0,0,0-1.57.31,2.52,2.52,0,0,0-1.08.87,2.49,2.49,0,0,0-.4,1.43,2.3,2.3,0,0,0,.87,1.94,3.49,3.49,0,0,0,2.18.66A3.78,3.78,0,0,0,172.15,118.5Zm1.89-4.67h.25a1.5,1.5,0,0,1,.43-.92,1.26,1.26,0,0,1,.91-.33h.64v1.3h-.87a.79.79,0,0,0-.54.15.88.88,0,0,0-.25.47Z"/><path class="cls-3" d="M178.38,112.58h1.43v2.53h.05a4.31,4.31,0,0,1,1.54-2.06,4.09,4.09,0,0,1,2.43-.74,3.68,3.68,0,0,1,2,.56,3.5,3.5,0,0,1,1.31,1.62,6.6,6.6,0,0,1,.46,2.55v7h-1.46v-6.81a4.13,4.13,0,0,0-.76-2.74,2.58,2.58,0,0,0-2.05-.86,3.57,3.57,0,0,0-1.74.44,3.33,3.33,0,0,0-1.31,1.39,4.84,4.84,0,0,0-.5,2.29V124h-1.45Z"/><path class="cls-3" d="M192.64,123.56a5.07,5.07,0,0,1-1.95-2.1,7.53,7.53,0,0,1,0-6.32,5,5,0,0,1,1.94-2.1,5.6,5.6,0,0,1,2.88-.73,5.49,5.49,0,0,1,2.76.69,4.87,4.87,0,0,1,1.9,1.92,5.88,5.88,0,0,1,.68,2.87v1h-9.3a5.14,5.14,0,0,0,.55,2.24,3.67,3.67,0,0,0,1.38,1.51,3.85,3.85,0,0,0,2,.54,3.92,3.92,0,0,0,2.29-.68,3.41,3.41,0,0,0,1.34-1.84h1.58a4.58,4.58,0,0,1-1,2,4.85,4.85,0,0,1-1.82,1.34,5.85,5.85,0,0,1-2.42.49A5.57,5.57,0,0,1,192.64,123.56Zm6.22-8.09a3.46,3.46,0,0,0-1.32-1.39,4.18,4.18,0,0,0-4,0,3.59,3.59,0,0,0-1.36,1.4,4.85,4.85,0,0,0-.58,2h7.73A4.43,4.43,0,0,0,198.86,115.47Z"/><path class="cls-3" d="M203.19,112.58h1.44v2.21h0a3.75,3.75,0,0,1,1.11-1.65,3.18,3.18,0,0,1,2-.56h1v1.3h-1.29a2.62,2.62,0,0,0-2.16.88,4,4,0,0,0-.73,2.62V124h-1.46Z"/><path class="cls-3" d="M217,123.83a3.76,3.76,0,0,1-1.62-1.34,3.59,3.59,0,0,1-.58-2,3.52,3.52,0,0,1,.89-2.39,6.39,6.39,0,0,1,2.51-1.65l1.62-.65a5.26,5.26,0,0,0,2.06-1.3,2.54,2.54,0,0,0,.69-1.76,2.11,2.11,0,0,0-.61-1.58,2.24,2.24,0,0,0-1.66-.61,2.7,2.7,0,0,0-1.27.29,2,2,0,0,0-.82.8,2.19,2.19,0,0,0-.28,1.12,3,3,0,0,0,.4,1.44,9.48,9.48,0,0,0,1.39,1.75l7.75,8.1h-2l-6.86-7.16a10.25,10.25,0,0,1-1.67-2.24,4.16,4.16,0,0,1-.49-1.89,3.45,3.45,0,0,1,.47-1.79,3.33,3.33,0,0,1,1.36-1.29,4.4,4.4,0,0,1,2.1-.48,4.13,4.13,0,0,1,2,.44,2.87,2.87,0,0,1,1.24,1.17,3.48,3.48,0,0,1,.41,1.68,3.64,3.64,0,0,1-.82,2.3,6.43,6.43,0,0,1-2.7,1.78l-1.63.67a4.7,4.7,0,0,0-1.89,1.29,2.76,2.76,0,0,0-.63,1.79,2.41,2.41,0,0,0,.81,1.93,3.26,3.26,0,0,0,2.23.7,5,5,0,0,0,2.75-.78,5.59,5.59,0,0,0,2-2.27,8.82,8.82,0,0,0,.86-3.53h1.5a9.36,9.36,0,0,1-1.05,4.06,7.62,7.62,0,0,1-2.56,2.85,6.21,6.21,0,0,1-3.52,1A5.5,5.5,0,0,1,217,123.83Z"/><path class="cls-3" d="M124.13,134.46h1.6L131.19,149h-1.58l-3.27-9c-.17-.54-.35-1.07-.55-1.58l-.42-1.18c-.09-.25-.24-.65-.45-1.17h0c-.47,1.3-.94,2.61-1.4,3.93l-3.27,9h-1.58Zm-2.71,9.17h7.06V145h-7.06Z"/><path class="cls-3" d="M133.06,137.58h1.44v2.21h0a3.68,3.68,0,0,1,1.12-1.65,3.15,3.15,0,0,1,2-.56h1v1.3h-1.29a2.65,2.65,0,0,0-2.17.88,4.07,4.07,0,0,0-.73,2.62V149h-1.46Z"/><path class="cls-3" d="M139.29,137.58h7.59v1.3h-7.59Zm3.12,10.78a2.75,2.75,0,0,1-.68-2v-11.9h1.44v11.83a1.26,1.26,0,0,0,1.46,1.46H147V149h-2.56A2.73,2.73,0,0,1,142.41,148.36Z"/><path class="cls-3" d="M153.79,134.46H159a7.61,7.61,0,0,1,3.66.86,6.2,6.2,0,0,1,2.49,2.51,9.08,9.08,0,0,1,0,7.84,6.14,6.14,0,0,1-2.49,2.51A7.61,7.61,0,0,1,159,149h-5.21Zm8,12.56a4.55,4.55,0,0,0,1.94-2,7.94,7.94,0,0,0,0-6.52,4.58,4.58,0,0,0-1.93-2,5.84,5.84,0,0,0-2.81-.67h-3.69v11.88H159A5.74,5.74,0,0,0,161.8,147Z"/><path class="cls-3" d="M168.42,133.77h1.52v1.61h-1.52Zm0,3.81h1.46V149h-1.46Z"/><path class="cls-3" d="M173,137.58h1.44v2.21h0a3.68,3.68,0,0,1,1.12-1.65,3.15,3.15,0,0,1,2-.56h1v1.3H177.4a2.65,2.65,0,0,0-2.17.88,4,4,0,0,0-.73,2.62V149H173Z"/><path class="cls-3" d="M182.26,148.56a5.07,5.07,0,0,1-1.95-2.1,7.63,7.63,0,0,1,0-6.32,5.13,5.13,0,0,1,1.94-2.1,5.66,5.66,0,0,1,2.89-.73,5.54,5.54,0,0,1,2.76.69,4.85,4.85,0,0,1,1.89,1.92,5.88,5.88,0,0,1,.68,2.87v1h-9.29a5.28,5.28,0,0,0,.54,2.24,3.69,3.69,0,0,0,1.39,1.51,3.85,3.85,0,0,0,2,.54,3.94,3.94,0,0,0,2.29-.68,3.39,3.39,0,0,0,1.33-1.84h1.59a4.58,4.58,0,0,1-1,2,4.89,4.89,0,0,1-1.83,1.34,5.8,5.8,0,0,1-2.41.49A5.58,5.58,0,0,1,182.26,148.56Zm6.22-8.09a3.44,3.44,0,0,0-1.31-1.39,3.93,3.93,0,0,0-2-.5,3.83,3.83,0,0,0-2,.53,3.61,3.61,0,0,0-1.37,1.4,4.84,4.84,0,0,0-.57,2h7.73A4.31,4.31,0,0,0,188.48,140.47Z"/><path class="cls-3" d="M194.54,148.56a5.19,5.19,0,0,1-2-2.1,6.83,6.83,0,0,1-.69-3.15,7.08,7.08,0,0,1,.66-3.14,5,5,0,0,1,1.94-2.11,5.83,5.83,0,0,1,3-.75,5.42,5.42,0,0,1,2.66.63,4.77,4.77,0,0,1,1.78,1.67,5.27,5.27,0,0,1,.77,2.35h-1.54a3.83,3.83,0,0,0-.51-1.69,3.34,3.34,0,0,0-1.27-1.23,3.89,3.89,0,0,0-1.89-.46,3.8,3.8,0,0,0-3.6,2.29,5.6,5.6,0,0,0-.5,2.44,5.42,5.42,0,0,0,.54,2.5,4.07,4.07,0,0,0,1.47,1.65,3.82,3.82,0,0,0,2.09.58,3.48,3.48,0,0,0,1.84-.48,3.83,3.83,0,0,0,1.27-1.19,3.75,3.75,0,0,0,.56-1.47h1.54a5.4,5.4,0,0,1-.82,2.19,4.77,4.77,0,0,1-1.77,1.62,5.48,5.48,0,0,1-2.62.6A5.74,5.74,0,0,1,194.54,148.56Z"/><path class="cls-3" d="M203.79,137.58h7.59v1.3h-7.59Zm3.12,10.78a2.75,2.75,0,0,1-.68-2v-11.9h1.44v11.83a1.26,1.26,0,0,0,1.46,1.46h2.35V149h-2.56A2.73,2.73,0,0,1,206.91,148.36Z"/><path class="cls-3" d="M215.31,148.59a5.17,5.17,0,0,1-2-2.08,7.27,7.27,0,0,1,0-6.39,5.26,5.26,0,0,1,2-2.09,5.75,5.75,0,0,1,2.88-.72A5.65,5.65,0,0,1,221,138a5.22,5.22,0,0,1,2,2.09,7.18,7.18,0,0,1,0,6.39,5.13,5.13,0,0,1-2,2.08,5.65,5.65,0,0,1-2.83.72A5.75,5.75,0,0,1,215.31,148.59Zm4.95-1.11a3.84,3.84,0,0,0,1.46-1.62,6.38,6.38,0,0,0,0-5.09,3.78,3.78,0,0,0-1.46-1.62,3.88,3.88,0,0,0-2.07-.57,3.86,3.86,0,0,0-3.56,2.19,6.16,6.16,0,0,0,0,5.09,4,4,0,0,0,1.46,1.62,3.93,3.93,0,0,0,2.1.56A3.88,3.88,0,0,0,220.26,147.48Z"/><path class="cls-3" d="M226.06,137.58h1.44v2.21h0a3.68,3.68,0,0,1,1.12-1.65,3.15,3.15,0,0,1,2-.56h1v1.3h-1.29a2.65,2.65,0,0,0-2.17.88,4,4,0,0,0-.73,2.62V149h-1.46Z"/></g></g></svg>