<svg xmlns="http://www.w3.org/2000/svg" viewBox="0 0 252 52"><defs><style>.cls-1{fill:#dade59;}.cls-2{fill:none;stroke:#676766;stroke-miterlimit:10;stroke-width:2px;}.cls-3{fill:#676766;}</style></defs><g id="Camada_2" data-name="Camada 2"><g id="Camada_1-2" data-name="Camada 1"><path class="cls-1" d="M251,26c0,13.81-56,25-125,25S1,39.81,1,26,57,1,126,1,251,12.19,251,26"/><ellipse class="cls-2" cx="126" cy="26" rx="125" ry="25"/><path class="cls-3" d="M39.7,31.93a6.57,6.57,0,0,1-2.44-2.67,8.57,8.57,0,0,1-.88-4,8.72,8.72,0,0,1,.85-3.94,6.28,6.28,0,0,1,2.45-2.65,7.92,7.92,0,0,1,7.19-.17,5.77,5.77,0,0,1,2.28,2.12,6.35,6.35,0,0,1,.91,3H48.48A4.59,4.59,0,0,0,46,19.71a5.35,5.35,0,0,0-2.56-.61,5.23,5.23,0,0,0-2.9.8,5.1,5.1,0,0,0-1.89,2.18A7.28,7.28,0,0,0,38,25.29a7.11,7.11,0,0,0,.72,3.28,5.28,5.28,0,0,0,2,2.18,5.21,5.21,0,0,0,2.77.77,4.94,4.94,0,0,0,2.63-.69,5.36,5.36,0,0,0,1.8-1.74A5.73,5.73,0,0,0,48.69,27H43.21V25.6h6a.93.93,0,0,1,.66.23.87.87,0,0,1,.23.63V32.6H48.61L48.94,29h0a6,6,0,0,1-2.13,2.82,5.86,5.86,0,0,1-3.52,1A6.68,6.68,0,0,1,39.7,31.93Z"/><path class="cls-3" d="M54.59,32.32a3.57,3.57,0,0,1-1.32-1.62,6.6,6.6,0,0,1-.46-2.55v-7h1.46V28A4.07,4.07,0,0,0,55,30.71a2.6,2.6,0,0,0,2,.85,3.47,3.47,0,0,0,1.77-.44,3.08,3.08,0,0,0,1.27-1.37,5.06,5.06,0,0,0,.48-2.31V21.15h1.48V32.6H60.63V30.08h-.05a4.2,4.2,0,0,1-1.51,2.08,4.06,4.06,0,0,1-2.38.71A3.82,3.82,0,0,1,54.59,32.32Z"/><path class="cls-3" d="M65.29,17.33h1.52v1.61H65.29Zm0,3.82h1.46V32.6H65.31Z"/><path class="cls-3" d="M70,16.33h1.46V32.6H70Z"/><path class="cls-3" d="M74.73,16.33h1.46v5.46c0,.61,0,1.24,0,1.88h0a4.33,4.33,0,0,1,1.44-2,4.15,4.15,0,0,1,4.53-.24A3.55,3.55,0,0,1,83.52,23,5.51,5.51,0,0,1,84,25.37V32.6H82.54V25.79a4.15,4.15,0,0,0-.75-2.72,2.56,2.56,0,0,0-2.06-.88,3.61,3.61,0,0,0-1.76.43A3.21,3.21,0,0,0,76.68,24a4.9,4.9,0,0,0-.49,2.31V32.6H74.73Z"/><path class="cls-3" d="M89,32.12A5.07,5.07,0,0,1,87,30a6.83,6.83,0,0,1-.69-3.15,7,7,0,0,1,.7-3.17A5.06,5.06,0,0,1,89,21.6a5.66,5.66,0,0,1,2.89-.73,5.54,5.54,0,0,1,2.76.69,4.85,4.85,0,0,1,1.89,1.92,5.88,5.88,0,0,1,.68,2.87v1H87.92a5.1,5.1,0,0,0,.54,2.24,3.67,3.67,0,0,0,1.38,1.51,3.88,3.88,0,0,0,2.06.54,4,4,0,0,0,2.29-.68,3.44,3.44,0,0,0,1.33-1.84H97.1a4.56,4.56,0,0,1-1,2,4.89,4.89,0,0,1-1.83,1.34,5.8,5.8,0,0,1-2.41.49A5.58,5.58,0,0,1,89,32.12ZM95.21,24a3.35,3.35,0,0,0-1.31-1.38,4.22,4.22,0,0,0-4,0,3.61,3.61,0,0,0-1.37,1.4,4.7,4.7,0,0,0-.57,2h7.73A4.43,4.43,0,0,0,95.21,24Z"/><path class="cls-3" d="M99.54,21.15H101v2.2h0a3.74,3.74,0,0,1,1.12-1.65,3.15,3.15,0,0,1,2-.55h1v1.29H103.9a2.65,2.65,0,0,0-2.17.88,4,4,0,0,0-.73,2.62V32.6H99.54Z"/><path class="cls-3" d="M106.85,21.15h1.44v2.39h0a4.42,4.42,0,0,1,1.35-1.92,3.4,3.4,0,0,1,2.26-.75,3.24,3.24,0,0,1,2.25.79,3.83,3.83,0,0,1,1.16,2.13h.05a4.35,4.35,0,0,1,1.37-2.11,3.51,3.51,0,0,1,2.35-.81,3.38,3.38,0,0,1,2,.57A3.46,3.46,0,0,1,122.35,23a5.7,5.7,0,0,1,.44,2.35V32.6h-1.46V25.54a3.79,3.79,0,0,0-.71-2.52,2.31,2.31,0,0,0-1.87-.83,3,3,0,0,0-1.61.44A3.11,3.11,0,0,0,116,24a4.79,4.79,0,0,0-.43,2.13v6.5H114.1V25.54a3.91,3.91,0,0,0-.69-2.52,2.33,2.33,0,0,0-1.89-.83,3,3,0,0,0-1.61.44A3.14,3.14,0,0,0,108.75,24a4.88,4.88,0,0,0-.44,2.13V32.6h-1.46Z"/><path class="cls-3" d="M127.8,32.12a5.07,5.07,0,0,1-2-2.1,7,7,0,0,1-.68-3.15,7,7,0,0,1,.69-3.17,5.13,5.13,0,0,1,1.94-2.1,5.66,5.66,0,0,1,2.89-.73,5.49,5.49,0,0,1,2.76.69,4.85,4.85,0,0,1,1.89,1.92,5.77,5.77,0,0,1,.68,2.87v1h-9.29a5.25,5.25,0,0,0,.54,2.24,3.69,3.69,0,0,0,1.39,1.51,3.85,3.85,0,0,0,2.05.54,3.94,3.94,0,0,0,2.29-.68,3.39,3.39,0,0,0,1.33-1.84h1.59a4.58,4.58,0,0,1-1,2,4.94,4.94,0,0,1-1.82,1.34,5.88,5.88,0,0,1-2.42.49A5.58,5.58,0,0,1,127.8,32.12ZM134,24a3.29,3.29,0,0,0-1.31-1.38,4.22,4.22,0,0,0-4,0,3.61,3.61,0,0,0-1.37,1.4,5,5,0,0,0-.57,2h7.73A4.31,4.31,0,0,0,134,24Z"/><path class="cls-3" d="M144.92,20.08h0l0,2.09V32.6h-1.55V18h2l8.57,12.52h0l0-2.08V18h1.5V32.6h-2Z"/><path class="cls-3" d="M160.67,32.16a5.13,5.13,0,0,1-2-2.09,6.52,6.52,0,0,1-.74-3.2,6.51,6.51,0,0,1,.74-3.19,5.13,5.13,0,0,1,2-2.09,5.69,5.69,0,0,1,2.87-.72,5.62,5.62,0,0,1,2.83.72,5.24,5.24,0,0,1,2,2.09,6.51,6.51,0,0,1,.75,3.19,6.52,6.52,0,0,1-.75,3.2,5.24,5.24,0,0,1-2,2.09,5.72,5.72,0,0,1-2.83.71A5.79,5.79,0,0,1,160.67,32.16ZM165.61,31a3.84,3.84,0,0,0,1.46-1.62,5.58,5.58,0,0,0,.53-2.55,5.57,5.57,0,0,0-.53-2.54,3.78,3.78,0,0,0-1.46-1.62A4,4,0,0,0,160,24.33a5.57,5.57,0,0,0-.54,2.54,5.58,5.58,0,0,0,.54,2.55A3.93,3.93,0,0,0,161.45,31a4.14,4.14,0,0,0,4.16,0Z"/><path class="cls-3" d="M169.83,21.15h7.59v1.29h-7.59ZM173,31.92a2.75,2.75,0,0,1-.68-2V18h1.44V29.85a1.26,1.26,0,0,0,1.46,1.46h2.35V32.6H175A2.73,2.73,0,0,1,173,31.92Z"/><path class="cls-3" d="M181,32.16a5.13,5.13,0,0,1-2-2.09,6.63,6.63,0,0,1-.74-3.2,6.62,6.62,0,0,1,.74-3.19,5.13,5.13,0,0,1,2-2.09,5.75,5.75,0,0,1,2.88-.72,5.65,5.65,0,0,1,2.83.72,5.22,5.22,0,0,1,2,2.09,6.51,6.51,0,0,1,.75,3.19,6.52,6.52,0,0,1-.75,3.2,5.22,5.22,0,0,1-2,2.09,5.74,5.74,0,0,1-2.83.71A5.85,5.85,0,0,1,181,32.16ZM186,31a3.9,3.9,0,0,0,1.46-1.62,5.71,5.71,0,0,0,.53-2.55,5.7,5.7,0,0,0-.53-2.54,3.83,3.83,0,0,0-3.53-2.18,3.93,3.93,0,0,0-2.1.56,3.87,3.87,0,0,0-1.47,1.62,5.57,5.57,0,0,0-.54,2.54,5.58,5.58,0,0,0,.54,2.55,3.86,3.86,0,0,0,3.57,2.18A3.88,3.88,0,0,0,186,31Z"/><path class="cls-3" d="M191.85,16.33h1.46V32.6h-1.46Z"/><path class="cls-3" d="M196.54,17.33h1.52v1.61h-1.52Zm0,3.82H198V32.6h-1.46Z"/><path class="cls-3" d="M201.27,21.15h1.44v2.52h0a4.37,4.37,0,0,1,1.54-2.06,4.12,4.12,0,0,1,2.44-.74,3.67,3.67,0,0,1,2,.56,3.44,3.44,0,0,1,1.31,1.62,6.42,6.42,0,0,1,.46,2.55v7h-1.46V25.79a4.08,4.08,0,0,0-.76-2.74,2.61,2.61,0,0,0-2-.86,3.6,3.6,0,0,0-1.74.44,3.37,3.37,0,0,0-1.3,1.39,4.87,4.87,0,0,0-.5,2.29V32.6h-1.46Z"/><path class="cls-3" d="M213.42,17.33h1.52v1.61h-1.52Zm0,3.82h1.46V32.6h-1.46Z"/></g></g></svg>