{
	"asset":{
		"generator":"Khronos glTF Blender I/O v3.6.27",
		"version":"2.0"
	},
	"scene":0,
	"scenes":[
		{
			"name":"Scene",
			"nodes":[
				0,
				1
			]
		}
	],
	"nodes":[
		{
			"mesh":0,
			"name":"smile_high.002_fora.001",
			"translation":[
				3.226249933242798,
				-2.2920494079589844,
				0.6880303621292114
			]
		},
		{
			"mesh":1,
			"name":"smile_high.002_fora",
			"rotation":[
				0.7071068286895752,
				0,
				0,
				0.7071068286895752
			],
			"translation":[
				3.2279300689697266,
				-2.2897586822509766,
				0
			]
		}
	],
	"meshes":[
		{
			"name":"Cylinder.008",
			"primitives":[
				{
					"attributes":{
						"POSITION":0,
						"NORMAL":1,
						"TEXCOORD_0":2
					},
					"indices":3
				}
			]
		},
		{
			"name":"Cylinder.007",
			"primitives":[
				{
					"attributes":{
						"POSITION":4,
						"NORMAL":5,
						"TEXCOORD_0":6
					},
					"indices":7
				}
			]
		}
	],
	"accessors":[
		{
			"bufferView":0,
			"componentType":5126,
			"count":130,
			"max":[
				-1.7582454681396484,
				4.073910713195801,
				0.09748870134353638
			],
			"min":[
				-3.3458433151245117,
				2.4863131046295166,
				-1.4735493659973145
			],
			"type":"VEC3"
		},
		{
			"bufferView":1,
			"componentType":5126,
			"count":130,
			"type":"VEC3"
		},
		{
			"bufferView":2,
			"componentType":5126,
			"count":130,
			"type":"VEC2"
		},
		{
			"bufferView":3,
			"componentType":5123,
			"count":372,
			"type":"SCALAR"
		},
		{
			"bufferView":4,
			"componentType":5126,
			"count":176,
			"max":[
				3.2686169147491455,
				0.7633421421051025,
				1.3628160953521729
			],
			"min":[
				-3.26861572265625,
				-0.7633415460586548,
				-1.4562216997146606
			],
			"type":"VEC3"
		},
		{
			"bufferView":5,
			"componentType":5126,
			"count":176,
			"type":"VEC3"
		},
		{
			"bufferView":6,
			"componentType":5126,
			"count":176,
			"type":"VEC2"
		},
		{
			"bufferView":7,
			"componentType":5123,
			"count":492,
			"type":"SCALAR"
		}
	],
	"bufferViews":[
		{
			"buffer":0,
			"byteLength":1560,
			"byteOffset":0,
			"target":34962
		},
		{
			"buffer":0,
			"byteLength":1560,
			"byteOffset":1560,
			"target":34962
		},
		{
			"buffer":0,
			"byteLength":1040,
			"byteOffset":3120,
			"target":34962
		},
		{
			"buffer":0,
			"byteLength":744,
			"byteOffset":4160,
			"target":34963
		},
		{
			"buffer":0,
			"byteLength":2112,
			"byteOffset":4904,
			"target":34962
		},
		{
			"buffer":0,
			"byteLength":2112,
			"byteOffset":7016,
			"target":34962
		},
		{
			"buffer":0,
			"byteLength":1408,
			"byteOffset":9128,
			"target":34962
		},
		{
			"buffer":0,
			"byteLength":984,
			"byteOffset":10536,
			"target":34963
		}
	],
	"buffers":[
		{
			"byteLength":11520,
			"uri":"data:application/octet-stream;base64,"
		}
	]
}
