{
	"asset":{
		"generator":"Khronos glTF Blender I/O v3.6.27",
		"version":"2.0"
	},
	"scene":0,
	"scenes":[
		{
			"name":"Scene",
			"nodes":[
				0,
				1,
				2
			]
		}
	],
	"nodes":[
		{
			"mesh":0,
			"name":"smile_high.002_fora",
			"rotation":[
				0.7071068286895752,
				0,
				0,
				0.7071068286895752
			],
			"translation":[
				0.07863688468933105,
				1.307442307472229,
				0
			]
		},
		{
			"mesh":1,
			"name":"smile_high.002_fora.001",
			"translation":[
				2.658515691757202,
				4.585263252258301,
				0
			]
		},
		{
			"mesh":2,
			"name":"smile_high.002_fora.002",
			"translation":[
				-2.475088357925415,
				4.585263252258301,
				0
			]
		}
	],
	"materials":[
		{
			"doubleSided":true,
			"name":"M1",
			"pbrMetallicRoughness":{}
		},
		{
			"doubleSided":true,
			"name":"M1.001",
			"pbrMetallicRoughness":{}
		}
	],
	"meshes":[
		{
			"name":"Cylinder.007",
			"primitives":[
				{
					"attributes":{
						"POSITION":0,
						"NORMAL":1,
						"TEXCOORD_0":2
					},
					"indices":3,
					"material":0
				}
			]
		},
		{
			"name":"Cylinder.008",
			"primitives":[
				{
					"attributes":{
						"POSITION":4,
						"NORMAL":5,
						"TEXCOORD_0":6
					},
					"indices":7,
					"material":0
				}
			]
		},
		{
			"name":"Cylinder.001",
			"primitives":[
				{
					"attributes":{
						"POSITION":8,
						"NORMAL":9,
						"TEXCOORD_0":10
					},
					"indices":11,
					"material":1
				}
			]
		}
	],
	"accessors":[
		{
			"bufferView":0,
			"componentType":5126,
			"count":4119,
			"max":[
				3.243807554244995,
				0.7615855932235718,
				1.3541247844696045
			],
			"min":[
				-3.243807077407837,
				-0.7615851163864136,
				-1.4459583759307861
			],
			"type":"VEC3"
		},
		{
			"bufferView":1,
			"componentType":5126,
			"count":4119,
			"type":"VEC3"
		},
		{
			"bufferView":2,
			"componentType":5126,
			"count":4119,
			"type":"VEC2"
		},
		{
			"bufferView":3,
			"componentType":5123,
			"count":14520,
			"type":"SCALAR"
		},
		{
			"bufferView":4,
			"componentType":5126,
			"count":3559,
			"max":[
				0.7887153625488281,
				0.7887153625488281,
				0.7855191230773926
			],
			"min":[
				-0.7887143492698669,
				-0.7887139916419983,
				-0.7855192422866821
			],
			"type":"VEC3"
		},
		{
			"bufferView":5,
			"componentType":5126,
			"count":3559,
			"type":"VEC3"
		},
		{
			"bufferView":6,
			"componentType":5126,
			"count":3559,
			"type":"VEC2"
		},
		{
			"bufferView":7,
			"componentType":5123,
			"count":9216,
			"type":"SCALAR"
		},
		{
			"bufferView":8,
			"componentType":5126,
			"count":3529,
			"max":[
				0.7887150645256042,
				0.7887153625488281,
				0.7855191230773926
			],
			"min":[
				-0.7887146472930908,
				-0.7887139916419983,
				-0.7855192422866821
			],
			"type":"VEC3"
		},
		{
			"bufferView":9,
			"componentType":5126,
			"count":3529,
			"type":"VEC3"
		},
		{
			"bufferView":10,
			"componentType":5126,
			"count":3529,
			"type":"VEC2"
		},
		{
			"bufferView":11,
			"componentType":5123,
			"count":9216,
			"type":"SCALAR"
		}
	],
	"bufferViews":[
		{
			"buffer":0,
			"byteLength":49428,
			"byteOffset":0,
			"target":34962
		},
		{
			"buffer":0,
			"byteLength":49428,
			"byteOffset":49428,
			"target":34962
		},
		{
			"buffer":0,
			"byteLength":32952,
			"byteOffset":98856,
			"target":34962
		},
		{
			"buffer":0,
			"byteLength":29040,
			"byteOffset":131808,
			"target":34963
		},
		{
			"buffer":0,
			"byteLength":42708,
			"byteOffset":160848,
			"target":34962
		},
		{
			"buffer":0,
			"byteLength":42708,
			"byteOffset":203556,
			"target":34962
		},
		{
			"buffer":0,
			"byteLength":28472,
			"byteOffset":246264,
			"target":34962
		},
		{
			"buffer":0,
			"byteLength":18432,
			"byteOffset":274736,
			"target":34963
		},
		{
			"buffer":0,
			"byteLength":42348,
			"byteOffset":293168,
			"target":34962
		},
		{
			"buffer":0,
			"byteLength":42348,
			"byteOffset":335516,
			"target":34962
		},
		{
			"buffer":0,
			"byteLength":28232,
			"byteOffset":377864,
			"target":34962
		},
		{
			"buffer":0,
			"byteLength":18432,
			"byteOffset":406096,
			"target":34963
		}
	],
	"buffers":[
		{
			"byteLength":424528,
			"uri":"data:application/octet-stream;base64,"
		}
	]
}
