{
	"asset":{
		"generator":"Khronos glTF Blender I/O v3.6.27",
		"version":"2.0"
	},
	"scene":0,
	"scenes":[
		{
			"name":"Scene",
			"nodes":[
				0,
				1
			]
		}
	],
	"nodes":[
		{
			"mesh":0,
			"name":"smile_high.002_fora.001",
			"translation":[
				3.226249933242798,
				-2.2920494079589844,
				0.6880303621292114
			]
		},
		{
			"mesh":1,
			"name":"smile_high.002_fora",
			"rotation":[
				0.7071068286895752,
				0,
				0,
				0.7071068286895752
			],
			"translation":[
				3.2279300689697266,
				-2.2897586822509766,
				0
			]
		}
	],
	"meshes":[
		{
			"name":"Cylinder.008",
			"primitives":[
				{
					"attributes":{
						"POSITION":0,
						"NORMAL":1,
						"TEXCOORD_0":2,
						"TANGENT":3
					},
					"indices":4
				}
			]
		},
		{
			"name":"Cylinder.007",
			"primitives":[
				{
					"attributes":{
						"POSITION":5,
						"NORMAL":6,
						"TEXCOORD_0":7,
						"TANGENT":8
					},
					"indices":9
				}
			]
		}
	],
	"accessors":[
		{
			"bufferView":0,
			"componentType":5126,
			"count":7920,
			"max":[
				3.340759515762329,
				4.068827152252197,
				0.09748873114585876
			],
			"min":[
				-3.340759515762329,
				2.4913976192474365,
				-1.4735498428344727
			],
			"type":"VEC3"
		},
		{
			"bufferView":1,
			"componentType":5126,
			"count":7920,
			"type":"VEC3"
		},
		{
			"bufferView":2,
			"componentType":5126,
			"count":7920,
			"type":"VEC2"
		},
		{
			"bufferView":3,
			"componentType":5126,
			"count":7920,
			"type":"VEC4"
		},
		{
			"bufferView":4,
			"componentType":5123,
			"count":18432,
			"type":"SCALAR"
		},
		{
			"bufferView":5,
			"componentType":5126,
			"count":4519,
			"max":[
				3.243807554244995,
				0.7615855932235718,
				1.354124903678894
			],
			"min":[
				-3.2438063621520996,
				-0.7615851163864136,
				-1.4459584951400757
			],
			"type":"VEC3"
		},
		{
			"bufferView":6,
			"componentType":5126,
			"count":4519,
			"type":"VEC3"
		},
		{
			"bufferView":7,
			"componentType":5126,
			"count":4519,
			"type":"VEC2"
		},
		{
			"bufferView":8,
			"componentType":5126,
			"count":4519,
			"type":"VEC4"
		},
		{
			"bufferView":9,
			"componentType":5123,
			"count":14520,
			"type":"SCALAR"
		}
	],
	"bufferViews":[
		{
			"buffer":0,
			"byteLength":95040,
			"byteOffset":0,
			"target":34962
		},
		{
			"buffer":0,
			"byteLength":95040,
			"byteOffset":95040,
			"target":34962
		},
		{
			"buffer":0,
			"byteLength":63360,
			"byteOffset":190080,
			"target":34962
		},
		{
			"buffer":0,
			"byteLength":126720,
			"byteOffset":253440,
			"target":34962
		},
		{
			"buffer":0,
			"byteLength":36864,
			"byteOffset":380160,
			"target":34963
		},
		{
			"buffer":0,
			"byteLength":54228,
			"byteOffset":417024,
			"target":34962
		},
		{
			"buffer":0,
			"byteLength":54228,
			"byteOffset":471252,
			"target":34962
		},
		{
			"buffer":0,
			"byteLength":36152,
			"byteOffset":525480,
			"target":34962
		},
		{
			"buffer":0,
			"byteLength":72304,
			"byteOffset":561632,
			"target":34962
		},
		{
			"buffer":0,
			"byteLength":29040,
			"byteOffset":633936,
			"target":34963
		}
	],
	"buffers":[
		{
			"byteLength":662976,
			"uri":"data:application/octet-stream;base64,"
		}
	]
}
