{
	"asset":{
		"generator":"Khronos glTF Blender I/O v3.6.27",
		"version":"2.0"
	},
	"scene":0,
	"scenes":[
		{
			"name":"Scene",
			"nodes":[
				0,
				1,
				2,
				3
			]
		}
	],
	"nodes":[
		{
			"mesh":0,
			"name":"smile_high.002_dentro",
			"rotation":[
				0.7071068286895752,
				0,
				0,
				0.7071068286895752
			],
			"translation":[
				-0.31873056292533875,
				1.5092417001724243,
				0
			]
		},
		{
			"mesh":1,
			"name":"smile_high.002_fora",
			"rotation":[
				0.7071068286895752,
				0,
				0,
				0.7071068286895752
			],
			"translation":[
				2.2349939346313477,
				-1.768579363822937,
				0
			]
		},
		{
			"mesh":2,
			"name":"smile_high.002_fora.001",
			"translation":[
				2.233313798904419,
				-1.7708702087402344,
				0.6880303621292114
			]
		},
		{
			"mesh":3,
			"name":"smile_high.002_dentro.001",
			"rotation":[
				0.7071068286895752,
				0,
				0,
				0.7071068286895752
			],
			"translation":[
				2.233313798904419,
				-1.7708700895309448,
				0.6880303025245667
			]
		}
	],
	"materials":[
		{
			"doubleSided":true,
			"name":"M1",
			"pbrMetallicRoughness":{}
		}
	],
	"meshes":[
		{
			"name":"Cylinder.005",
			"primitives":[
				{
					"attributes":{
						"POSITION":0,
						"NORMAL":1,
						"TEXCOORD_0":2
					},
					"indices":3,
					"material":0
				}
			]
		},
		{
			"name":"Cylinder.007",
			"primitives":[
				{
					"attributes":{
						"POSITION":4,
						"NORMAL":5,
						"TEXCOORD_0":6
					},
					"indices":3,
					"material":0
				}
			]
		},
		{
			"name":"Cylinder.008",
			"primitives":[
				{
					"attributes":{
						"POSITION":7,
						"NORMAL":8,
						"TEXCOORD_0":9
					},
					"indices":10,
					"material":0
				}
			]
		},
		{
			"name":"Cylinder.009",
			"primitives":[
				{
					"attributes":{
						"POSITION":11,
						"NORMAL":12,
						"TEXCOORD_0":13
					},
					"indices":14,
					"material":0
				}
			]
		}
	],
	"accessors":[
		{
			"bufferView":0,
			"componentType":5126,
			"count":176,
			"max":[
				5.652627944946289,
				0.6161895394325256,
				4.466545104980469
			],
			"min":[
				-0.5451773405075073,
				-0.6161922812461853,
				1.9878171682357788
			],
			"type":"VEC3"
		},
		{
			"bufferView":1,
			"componentType":5126,
			"count":176,
			"type":"VEC3"
		},
		{
			"bufferView":2,
			"componentType":5126,
			"count":176,
			"type":"VEC2"
		},
		{
			"bufferView":3,
			"componentType":5123,
			"count":492,
			"type":"SCALAR"
		},
		{
			"bufferView":4,
			"componentType":5126,
			"count":176,
			"max":[
				3.2686169147491455,
				0.7633421421051025,
				1.3628160953521729
			],
			"min":[
				-3.26861572265625,
				-0.7633415460586548,
				-1.4562216997146606
			],
			"type":"VEC3"
		},
		{
			"bufferView":5,
			"componentType":5126,
			"count":176,
			"type":"VEC3"
		},
		{
			"bufferView":6,
			"componentType":5126,
			"count":176,
			"type":"VEC2"
		},
		{
			"bufferView":7,
			"componentType":5126,
			"count":130,
			"max":[
				-1.7582454681396484,
				4.073910713195801,
				0.09748870134353638
			],
			"min":[
				-3.3458433151245117,
				2.4863131046295166,
				-1.4735493659973145
			],
			"type":"VEC3"
		},
		{
			"bufferView":8,
			"componentType":5126,
			"count":130,
			"type":"VEC3"
		},
		{
			"bufferView":9,
			"componentType":5126,
			"count":130,
			"type":"VEC2"
		},
		{
			"bufferView":10,
			"componentType":5123,
			"count":372,
			"type":"SCALAR"
		},
		{
			"bufferView":11,
			"componentType":5126,
			"count":130,
			"max":[
				-1.9338481426239014,
				-0.06793498992919922,
				-2.6619157791137695
			],
			"min":[
				-3.170240640640259,
				-1.3081252574920654,
				-3.898308277130127
			],
			"type":"VEC3"
		},
		{
			"bufferView":12,
			"componentType":5126,
			"count":130,
			"type":"VEC3"
		},
		{
			"bufferView":13,
			"componentType":5126,
			"count":130,
			"type":"VEC2"
		},
		{
			"bufferView":14,
			"componentType":5123,
			"count":372,
			"type":"SCALAR"
		}
	],
	"bufferViews":[
		{
			"buffer":0,
			"byteLength":2112,
			"byteOffset":0,
			"target":34962
		},
		{
			"buffer":0,
			"byteLength":2112,
			"byteOffset":2112,
			"target":34962
		},
		{
			"buffer":0,
			"byteLength":1408,
			"byteOffset":4224,
			"target":34962
		},
		{
			"buffer":0,
			"byteLength":984,
			"byteOffset":5632,
			"target":34963
		},
		{
			"buffer":0,
			"byteLength":2112,
			"byteOffset":6616,
			"target":34962
		},
		{
			"buffer":0,
			"byteLength":2112,
			"byteOffset":8728,
			"target":34962
		},
		{
			"buffer":0,
			"byteLength":1408,
			"byteOffset":10840,
			"target":34962
		},
		{
			"buffer":0,
			"byteLength":1560,
			"byteOffset":12248,
			"target":34962
		},
		{
			"buffer":0,
			"byteLength":1560,
			"byteOffset":13808,
			"target":34962
		},
		{
			"buffer":0,
			"byteLength":1040,
			"byteOffset":15368,
			"target":34962
		},
		{
			"buffer":0,
			"byteLength":744,
			"byteOffset":16408,
			"target":34963
		},
		{
			"buffer":0,
			"byteLength":1560,
			"byteOffset":17152,
			"target":34962
		},
		{
			"buffer":0,
			"byteLength":1560,
			"byteOffset":18712,
			"target":34962
		},
		{
			"buffer":0,
			"byteLength":1040,
			"byteOffset":20272,
			"target":34962
		},
		{
			"buffer":0,
			"byteLength":744,
			"byteOffset":21312,
			"target":34963
		}
	],
	"buffers":[
		{
			"byteLength":22056,
			"uri":"smile.bin"
		}
	]
}
